<svg width="30" height="30" viewBox="0 0 30 30" fill="none" xmlns="http://www.w3.org/2000/svg">
<g clip-path="url(#clip0_1_281)">
<path d="M20 8.3335V5.00016C20 4.55814 19.8244 4.13421 19.5119 3.82165C19.1993 3.50909 18.7754 3.3335 18.3333 3.3335H5.00001C4.55798 3.3335 4.13406 3.50909 3.8215 3.82165C3.50894 4.13421 3.33334 4.55814 3.33334 5.00016V18.3335C3.33334 18.7755 3.50894 19.1994 3.8215 19.512C4.13406 19.8246 4.55798 20.0002 5.00001 20.0002H8.33334V10.0002C8.33334 9.55814 8.50894 9.13421 8.8215 8.82165C9.13406 8.50909 9.55798 8.3335 10 8.3335H20Z" fill="white"/>
<path d="M25 10H11.6667C11.2246 10 10.8007 10.1756 10.4882 10.4882C10.1756 10.8007 10 11.2246 10 11.6667V25C10 25.442 10.1756 25.8659 10.4882 26.1785C10.8007 26.4911 11.2246 26.6667 11.6667 26.6667H25C25.442 26.6667 25.8659 26.4911 26.1785 26.1785C26.4911 25.8659 26.6667 25.442 26.6667 25V11.6667C26.6667 11.2246 26.4911 10.8007 26.1785 10.4882C25.8659 10.1756 25.442 10 25 10ZM23.3333 19.1667H19.1667V23.3333H17.5V19.1667H13.3333V17.5H17.5V13.3333H19.1667V17.5H23.3333V19.1667Z" fill="white"/>
</g>
<defs>
<clipPath id="clip0_1_281">
<rect width="30" height="30" fill="white"/>
</clipPath>
</defs>
</svg>
