<svg id="Layer_1" data-name="Layer 1" xmlns="http://www.w3.org/2000/svg" viewBox="0 0 157.99 150.41"><defs><style>.cls-1{fill:none;stroke:#fff;stroke-miterlimit:10;stroke-width:3px;}.cls-2{fill:#fff;}</style></defs><circle class="cls-1" cx="82.26" cy="72.49" r="70.99"/><path class="cls-2" d="M604.26,390.73l-.09-3.79,8.51-.22-.18-7.25-8.52.21-.09-3.79,21.21-.54.1,3.8-9.4.23.18,7.26,9.4-.24.1,3.8Z" transform="translate(-603.89 -308.97)"/><path class="cls-2" d="M615,401l11.61-11.21,1.11,4.56-4.81,4.37c-1.41,1.2-2.76,2.36-4.2,3.64l0,.14c1.86.45,3.61.94,5.41,1.37l6.27,1.59,1.08,4.44L616,405.27,608.83,407l-1-4.29Z" transform="translate(-603.89 -308.97)"/><path class="cls-2" d="M620.37,417.71l12.68-8,2.49,3.94-12.95,8.22c-3.32,2.11-3.82,4.48-2.34,6.82s3.89,3,7.21.86l12.95-8.21,2.39,3.77-12.68,8.05c-5.59,3.55-10,2.38-13-2.45S614.78,421.26,620.37,417.71Z" transform="translate(-603.89 -308.97)"/><path class="cls-2" d="M645.48,425l3.49,3.05-3,13.34-1.31,4.91.08.07c1.29-1.76,2.76-4.07,4.33-5.86l6.1-7,3.17,2.77-14,16.06-3.49-3,3-13.36,1.3-4.9L645,431c-1.36,1.83-2.73,4-4.29,5.82l-6.15,7-3.16-2.77Z" transform="translate(-603.89 -308.97)"/><path class="cls-2" d="M667.76,434.89l4.92,1.69.67,22.8-4.44-1.53.16-12c0-2.37.06-4.92.18-7.37l-.14,0c-1.43,2-2.91,4.06-4.35,5.95l-7.25,9.5-4.27-1.46Z" transform="translate(-603.89 -308.97)"/><path class="cls-2" d="M754.23,438.45l5.3-5.74,2.34,2.16L748.29,449.6l-2.35-2.16,5.3-5.75-13.35-12.3,3-3.23Z" transform="translate(-603.89 -308.97)"/></svg>