<svg id="Layer_1" data-name="Layer 1" xmlns="http://www.w3.org/2000/svg" viewBox="0 0 157.99 150.41"><defs><style>.cls-1{fill:none;stroke:#000;stroke-miterlimit:10;stroke-width:3px;}</style></defs><circle class="cls-1" cx="82.26" cy="72.49" r="70.99"/><path d="M641.85,425.6l-.09-3.8,8.51-.21-.18-7.25-8.51.21-.1-3.8,21.22-.53.09,3.8-9.39.23.18,7.26,9.4-.24.09,3.8Z" transform="translate(-641.48 -343.84)"/><path d="M652.58,435.85l11.61-11.22,1.11,4.57-4.81,4.37c-1.41,1.2-2.76,2.36-4.19,3.63l0,.15c1.86.45,3.61.93,5.42,1.37l6.26,1.59,1.08,4.44-15.46-4.61-7.2,1.75-1-4.28Z" transform="translate(-641.48 -343.84)"/><path d="M658,452.58l12.69-8.05,2.49,3.94-12.95,8.22c-3.32,2.11-3.83,4.48-2.35,6.82s3.89,3,7.21.86l13-8.21,2.4,3.77L667.71,468c-5.59,3.55-10,2.38-13-2.45S652.37,456.13,658,452.58Z" transform="translate(-641.48 -343.84)"/><path d="M683.08,459.87l3.48,3.05-2.95,13.35-1.31,4.91.08.07c1.3-1.76,2.76-4.07,4.33-5.86l6.11-7,3.16,2.76-14,16.07-3.49-3,3-13.36,1.3-4.9-.08-.07c-1.35,1.83-2.73,4-4.29,5.82l-6.14,7L669,475.94Z" transform="translate(-641.48 -343.84)"/><path d="M705.35,469.76l4.92,1.69.67,22.79-4.44-1.52.16-12c0-2.37.06-4.92.19-7.37l-.15,0c-1.42,2-2.91,4.06-4.34,5.95l-7.26,9.5-4.27-1.47Z" transform="translate(-641.48 -343.84)"/><path d="M791.82,473.32l5.3-5.74,2.34,2.16-13.58,14.73-2.35-2.17,5.3-5.74-13.35-12.3,3-3.23Z" transform="translate(-641.48 -343.84)"/></svg>