<svg id="Layer_1" data-name="Layer 1" xmlns="http://www.w3.org/2000/svg" viewBox="0 0 281.5 244.32"><defs><style>.cls-1{fill:none;}.cls-2{fill:#006837;}.cls-3{fill:#fff;}</style></defs><circle cx="135.78" cy="114.34" r="114.34"/><path d="M834.64,477.34l7.26-11.8,5.55,3.13-18.6,30.26-5.56-3.13,7.26-11.8L799,466.19l4.09-6.66Z" transform="translate(-565.95 -292.68)"/><path class="cls-1" d="M656.33,517.92c.79-1.5,1.62-3.24,2.47-5-.78-.31-1.56-.6-2.33-.93l-.33,5.78Z" transform="translate(-565.95 -292.68)"/><path class="cls-1" d="M601,486.36c3.46,4.81,8.33,6,14.46,1.53l3.29-2.38a114,114,0,0,1-12.11-15.05l-2.45,1.77C598,476.68,597.54,481.59,601,486.36Z" transform="translate(-565.95 -292.68)"/><path class="cls-2" d="M610.62,407.7l.25-5.37-19.75-.42.65-14.06,19.76.42.34-7.35-21.26-.46A114.55,114.55,0,0,0,587.38,407c0,.73.1,1.44.11,2.18l21.2.45Z" transform="translate(-565.95 -292.68)"/><path class="cls-2" d="M619.66,438.2l-12.74-2.76c-3.67-.74-7.24-1.6-11-2.36l-.07-.3c2.87-2.67,5.56-5.09,8.37-7.62l9.61-9.15-2.39-9.12-.8.81-.1,2-1.83,0L589.55,429c.68,3.48,1.54,6.89,2.53,10.25L622,447.06Z" transform="translate(-565.95 -292.68)"/><polygon class="cls-3" points="44.58 117.01 44.67 115.02 42.75 116.97 44.58 117.01"/><path class="cls-2" d="M628.07,454.91l-5.76-8L601.47,462q2.38,4.35,5.15,8.47Z" transform="translate(-565.95 -292.68)"/><path class="cls-2" d="M639.35,470.57l-20.62,14.94c2.2,2.33,4.51,4.55,6.91,6.69l19.24-13.94Z" transform="translate(-565.95 -292.68)"/><path class="cls-2" d="M656.71,508l.29-26.53L648.52,476,633.61,498.7c2.46,1.83,5,3.56,7.57,5.19l2.72-4.15c2.43-3.71,4.31-8.22,6.3-12l.18.12-.54,9.78-.13,11.11c2.23,1.14,4.46,2.26,6.76,3.26Z" transform="translate(-565.95 -292.68)"/><path class="cls-2" d="M672.21,491.32l-9.51,14.52a64.48,64.48,0,0,0-3.9,7.11c2.69,1.1,5.43,2.12,8.22,3l12.89-19.66Z" transform="translate(-565.95 -292.68)"/><path class="cls-2" d="M689.78,494.33l-14.5,23.83c1.34.32,2.64.7,4,1l.32-2.41,5.78.66,2.51-4.56c2.18-4,4.39-8.24,6.49-12.42l.33,0c.89,4.53,2,9.19,3.09,13.53l1.21,5,5.89.68-.22,1.59c1.32,0,2.63-.12,3.94-.2l-7.52-25.38Z" transform="translate(-565.95 -292.68)"/><path class="cls-1" d="M656.33,517.92c.77-1.47,1.57-3.12,2.4-4.82l-2.26-1-.33,5.65Z" transform="translate(-565.95 -292.68)"/><path class="cls-1" d="M601,486.36c3.46,4.81,8.33,6,14.46,1.53l3.28-2.38a114.69,114.69,0,0,1-12-15.14l-2.57,1.86C598,476.68,597.54,481.59,601,486.36Z" transform="translate(-565.95 -292.68)"/><path d="M590.94,380.47,567.28,380l-.35,7.36,17.88.39-.64,14.06-17.88-.38-.34,7.35,21.84.47c0-.64,0-1.27,0-1.91A114.48,114.48,0,0,1,590.94,380.47Z" transform="translate(-565.95 -292.68)"/><path d="M588.27,430.33l-14.52,4.06L576,443l14.53-4.07,1.81.47c-1-3.45-1.85-7-2.54-10.56Z" transform="translate(-565.95 -292.68)"/><path d="M618.72,485.51l-3.28,2.38c-6.13,4.45-11,3.28-14.46-1.53s-2.94-9.68,3.19-14.13l2.57-1.86c-1.82-2.75-3.54-5.58-5.12-8.49l-2.72,2c-10.32,7.49-10.88,16.88-3.78,26.75s16,12.11,26.35,4.62l4.11-3Q622,489,618.72,485.51Z" transform="translate(-565.95 -292.68)"/><path d="M626.63,509.36l7.69,5L641.11,504c-2.59-1.64-5.12-3.38-7.56-5.21Z" transform="translate(-565.95 -292.68)"/><path d="M656.33,517.92l-.19-.12.33-5.65c-2.29-1-4.55-2.07-6.76-3.21l-.17,15.27L658,529.7l8.91-13.59c-2.78-.9-5.52-1.91-8.2-3C657.9,514.8,657.1,516.45,656.33,517.92Z" transform="translate(-565.95 -292.68)"/><path d="M699.65,521.6l3.46,14.22L713.34,537l-4.61-15.57q-3.29.2-6.62.2Z" transform="translate(-565.95 -292.68)"/><path d="M667.06,531.68l9.82,1.14,7-12.65c-2.94-.47-5.85-1.06-8.71-1.75Z" transform="translate(-565.95 -292.68)"/><path d="M587.79,409.2a114.81,114.81,0,0,0,2,19.59l18.9-19.14Z" transform="translate(-565.95 -292.68)"/><path d="M650.38,487.87l-.18-.12c-2,3.77-3.87,8.28-6.3,12L641.11,504q4.18,2.64,8.6,4.93l.13-11.29Z" transform="translate(-565.95 -292.68)"/><path d="M694.7,500.43l-.33,0c-2.1,4.18-4.31,8.46-6.49,12.42l-4,7.35a115.83,115.83,0,0,0,15.81,1.43L697.79,514C696.72,509.62,695.59,505,694.7,500.43Z" transform="translate(-565.95 -292.68)"/><path class="cls-3" d="M610.62,407.7l.25-5.37-19.75-.42.65-14.06,19.76.42.34-7.35-20.93-.45a114.48,114.48,0,0,0-3.17,26.82c0,.64,0,1.27,0,1.91l20.9.45Z" transform="translate(-565.95 -292.68)"/><path class="cls-3" d="M619.66,438.2l-12.74-2.76c-3.67-.74-7.24-1.6-11-2.36l-.07-.3c2.87-2.67,5.56-5.09,8.37-7.62l9.61-9.15-2.39-9.12-.8.81-.1,2-1.83,0-18.9,19.14c.69,3.58,1.53,7.11,2.54,10.56L622,447.06Z" transform="translate(-565.95 -292.68)"/><polygon points="44.58 117.01 44.67 115.03 42.75 116.97 44.58 117.01"/><path class="cls-3" d="M639.35,470.57l-20.63,14.94q3.28,3.51,6.86,6.73l19.3-14Z" transform="translate(-565.95 -292.68)"/><path class="cls-3" d="M628.07,454.91l-5.76-8-20.69,15c1.58,2.91,3.3,5.74,5.12,8.49Z" transform="translate(-565.95 -292.68)"/><path class="cls-3" d="M656.71,508l.29-26.53L648.52,476l-15,22.83c2.44,1.83,5,3.57,7.56,5.21l2.79-4.27c2.43-3.71,4.31-8.22,6.3-12l.18.12-.54,9.78-.13,11.29c2.21,1.14,4.47,2.21,6.76,3.21Z" transform="translate(-565.95 -292.68)"/><path class="cls-3" d="M672.21,491.32l-9.51,14.52a65.47,65.47,0,0,0-4,7.26c2.68,1.1,5.42,2.11,8.2,3l13-19.81Z" transform="translate(-565.95 -292.68)"/><path class="cls-3" d="M689.78,494.33l-14.65,24.09c2.86.69,5.77,1.28,8.71,1.75l4-7.35c2.18-4,4.39-8.24,6.49-12.42l.33,0c.89,4.53,2,9.19,3.09,13.53l1.86,7.64,2.46,0q3.33,0,6.62-.2l-7.64-25.8Z" transform="translate(-565.95 -292.68)"/></svg>