<svg id="Layer_1" data-name="Layer 1" xmlns="http://www.w3.org/2000/svg" viewBox="0 0 157.99 148.91"><defs><style>.cls-1,.cls-2{fill:#006837;}.cls-1{opacity:0.1;}.cls-3{fill:none;}.cls-4{fill:#fff;}</style></defs><circle class="cls-1" cx="82.26" cy="70.99" r="70.99"/><circle class="cls-1" cx="82.26" cy="70.99" r="70.99"/><circle class="cls-1" cx="82.26" cy="70.99" r="70.99"/><circle class="cls-1" cx="82.26" cy="70.99" r="70.99"/><circle class="cls-1" cx="82.26" cy="70.99" r="70.99"/><circle class="cls-1" cx="82.26" cy="70.99" r="70.99"/><circle class="cls-1" cx="82.26" cy="70.99" r="70.99"/><circle class="cls-1" cx="82.26" cy="70.99" r="70.99"/><circle class="cls-1" cx="82.26" cy="70.99" r="70.99"/><circle class="cls-1" cx="82.26" cy="70.99" r="70.99"/><path class="cls-2" d="M629.31,448.35l-.08-3.79,8.5-.22-.18-7.25-8.51.21-.1-3.79,21.22-.53.1,3.79-9.4.24.18,7.25,9.4-.23.1,3.79Z" transform="translate(-628.94 -368.09)"/><path class="cls-2" d="M640.05,458.61l11.61-11.22,1.1,4.57L648,456.32c-1.41,1.21-2.75,2.36-4.19,3.64l0,.15c1.85.45,3.6.93,5.41,1.37l6.26,1.59,1.08,4.44-15.46-4.61-7.2,1.75-1-4.28Z" transform="translate(-628.94 -368.09)"/><path class="cls-2" d="M645.43,475.34l12.68-8,2.49,3.94-13,8.21c-3.32,2.11-3.83,4.49-2.34,6.83s3.89,3,7.2.86l13-8.22,2.39,3.78-12.68,8c-5.6,3.55-10,2.38-13-2.45S639.83,478.88,645.43,475.34Z" transform="translate(-628.94 -368.09)"/><path class="cls-2" d="M670.54,482.63l3.48,3.05L671.07,499l-1.3,4.92.07.07c1.3-1.77,2.77-4.08,4.34-5.87l6.1-7,3.16,2.77L669.4,510l-3.48-3.05,3-13.35,1.3-4.9-.07-.07c-1.36,1.82-2.74,4-4.3,5.82l-6.14,7-3.16-2.77Z" transform="translate(-628.94 -368.09)"/><path class="cls-2" d="M692.81,492.51l4.92,1.69.68,22.8L694,515.47l.15-11.94c0-2.37.06-4.92.19-7.37l-.14-.06c-1.43,2-2.92,4.06-4.35,5.95l-7.26,9.51-4.26-1.47Z" transform="translate(-628.94 -368.09)"/><path class="cls-2" d="M779.28,496.07l5.3-5.74,2.35,2.16-13.59,14.73L771,505.06l5.29-5.75L762.94,487l3-3.24Z" transform="translate(-628.94 -368.09)"/><path class="cls-3" d="M669.77,503.94l.07.07c1.09-1.47,2.31-3.28,3.59-4.89-.7-.44-1.42-.84-2.09-1.3l-.27,1.2Z" transform="translate(-628.94 -368.09)"/><path class="cls-3" d="M645.31,486.27c1.49,2.36,3.89,3,7.2.86l4.15-2.63a69.27,69.27,0,0,1-5.33-7.39l-3.68,2.33C644.33,481.55,643.82,483.93,645.31,486.27Z" transform="translate(-628.94 -368.09)"/><path class="cls-3" d="M694.12,503.53c0-2.37.06-4.92.19-7.37l-.14-.06c-1.43,2-2.92,4.06-4.35,5.95l-1.65,2.17,5.91,2Z" transform="translate(-628.94 -368.09)"/><path class="cls-4" d="M650.45,444l-9.4.24-.19-7.25,9.41-.24-.1-3.79-9.66.24c-.16,1.94-.3,3.89-.3,5.87a71.89,71.89,0,0,0,.63,9l9.71-.25Z" transform="translate(-628.94 -368.09)"/><path class="cls-4" d="M655.47,463.07l-6.26-1.59c-1.81-.44-3.56-.92-5.41-1.37l0-.15c1.44-1.28,2.78-2.43,4.19-3.64l4.81-4.36-1.1-4.57-9.25,8.94A70.36,70.36,0,0,0,644.8,464l11.75,3.51Z" transform="translate(-628.94 -368.09)"/><path class="cls-4" d="M665.47,478.91l-8.81,5.59c1,1.16,2,2.26,3.05,3.36l8.15-5.17Z" transform="translate(-628.94 -368.09)"/><path class="cls-4" d="M660.6,471.23l-2.49-3.94-9.2,5.84c.74,1.36,1.58,2.67,2.42,4Z" transform="translate(-628.94 -368.09)"/><path class="cls-4" d="M680.28,491.15l-6.1,7c-.26.3-.5.66-.75,1,1.18.74,2.35,1.49,3.57,2.17l6.44-7.37Z" transform="translate(-628.94 -368.09)"/><path class="cls-4" d="M674,485.68l-3.48-3.05-7.46,8.54c1,.94,2,1.91,3.09,2.79,1.4-1.7,2.68-3.67,3.93-5.34l.07.07-1.3,4.9-.45,2.05c1,.73,1.91,1.5,2.92,2.18Z" transform="translate(-628.94 -368.09)"/><path class="cls-4" d="M696.19,508.45l.45-1.32-2.56-.88,0,1.66C694.77,508.08,695.47,508.3,696.19,508.45Z" transform="translate(-628.94 -368.09)"/><path class="cls-4" d="M688.17,504.22l-2.52-.87-.58,1.7c.63.25,1.28.47,1.92.7Z" transform="translate(-628.94 -368.09)"/><path class="cls-4" d="M692.81,492.51l-9.71,11.76c.65.28,1.31.52,2,.78l.58-1.7,2.52.87,1.65-2.17c1.43-1.89,2.92-3.93,4.35-5.95l.14.06c-.13,2.45-.17,5-.19,7.37l0,2.72,2.56.88-.45,1.32c.65.14,1.31.26,2,.38l-.43-14.63Z" transform="translate(-628.94 -368.09)"/></svg>