<svg id="Layer_1" data-name="Layer 1" xmlns="http://www.w3.org/2000/svg" viewBox="0 0 403.37 349.48"><defs><style>.cls-1{fill:#fff;}.cls-2{fill:none;}.cls-3{fill:#006837;}</style></defs><circle class="cls-1" cx="194.22" cy="163.55" r="163.55"/><path class="cls-1" d="M454,371.68l.48-10.51,25.59.53.91-20.11-25.58-.54.5-10.53,63.79,1.38-.49,10.51-28.27-.6L490,361.93l28.26.59-.5,10.53Z" transform="translate(-453.95 -205.68)"/><path class="cls-1" d="M485.88,402.58,519,369.05l3.43,13-13.75,13.09c-4,3.61-7.87,7.08-12,10.9l.1.42c5.41,1.1,10.51,2.32,15.77,3.39l18.22,3.94,3.34,12.68-45-11.7-20.78,5.81-3.21-12.24Z" transform="translate(-453.95 -205.68)"/><path class="cls-1" d="M501.08,450.53l33.49-24.26,8.24,11.47-34.18,24.77c-8.78,6.36-9.49,13.39-4.57,20.21s11.91,8.55,20.68,2.19l34.2-24.77,7.91,11L533.37,495.4c-14.77,10.71-27.58,7.46-37.69-6.61S486.32,461.24,501.08,450.53Z" transform="translate(-453.95 -205.68)"/><path class="cls-1" d="M572.06,467.85l12.12,7.87-.41,37.94-.81,14,.27.18c2.73-5.2,5.61-12,9.1-17.29L606,489.81l11,7.13-31.3,47.78-12.14-7.85.44-38,.78-14-.27-.18c-2.85,5.39-5.54,11.86-9,17.16l-13.71,20.9-11-7.14Z" transform="translate(-453.95 -205.68)"/><path class="cls-1" d="M631.08,494.12,647.26,496l17.51,59.18-14.62-1.68-7.62-31.27c-1.52-6.2-3.14-12.87-4.42-19.35l-.47-.05c-3,6-6.16,12.1-9.28,17.77l-15.74,28.6-14-1.62Z" transform="translate(-453.95 -205.68)"/><path class="cls-1" d="M839.46,474.05l9.72-16.7,8.13,4.6L832.4,504.78l-8.13-4.61L834,483.48l-46.26-26.17,5.48-9.43Z" transform="translate(-453.95 -205.68)"/><path class="cls-2" d="M583.23,527.86c1.13-2.14,2.32-4.63,3.53-7.1-1.11-.45-2.23-.87-3.32-1.34l-.48,8.27Z" transform="translate(-453.95 -205.68)"/><path class="cls-2" d="M504.06,482.72c4.95,6.88,11.91,8.55,20.68,2.19l4.7-3.41A164,164,0,0,1,512.12,460l-3.49,2.53C499.85,468.87,499.14,475.9,504.06,482.72Z" transform="translate(-453.95 -205.68)"/><path class="cls-3" d="M517.84,370.21l.37-7.69L490,361.93l.93-20.12,28.27.6.49-10.51-30.41-.66a163.48,163.48,0,0,0-4.62,38c0,1,.14,2.07.16,3.11l30.32.65Z" transform="translate(-453.95 -205.68)"/><path class="cls-3" d="M530.78,413.83l-18.22-3.94c-5.26-1.07-10.36-2.29-15.77-3.39l-.1-.43c4.11-3.81,8-7.28,12-10.89l13.75-13.09-3.43-13-1.15,1.16-.13,2.84-2.62-.06-27.38,27.74c1,5,2.2,9.85,3.62,14.66l42.79,11.12Z" transform="translate(-453.95 -205.68)"/><polygon class="cls-1" points="63.76 167.38 63.9 164.53 61.14 167.32 63.76 167.38"/><path class="cls-3" d="M542.81,437.74l-8.24-11.47-29.81,21.59q3.42,6.22,7.36,12.12Z" transform="translate(-453.95 -205.68)"/><path class="cls-3" d="M558.94,460.13l-29.5,21.37c3.16,3.34,6.46,6.51,9.89,9.57l27.52-19.94Z" transform="translate(-453.95 -205.68)"/><path class="cls-3" d="M583.77,513.66l.41-37.95-12.12-7.86-21.32,32.53q5.25,3.92,10.82,7.41l3.9-5.93c3.46-5.31,6.15-11.77,9-17.16l.27.18-.78,14-.18,15.9c3.18,1.63,6.37,3.24,9.67,4.66Z" transform="translate(-453.95 -205.68)"/><path class="cls-3" d="M606,489.81l-13.62,20.77a95.19,95.19,0,0,0-5.57,10.18c3.86,1.56,7.77,3,11.76,4.3L617,496.94Z" transform="translate(-453.95 -205.68)"/><path class="cls-3" d="M631.08,494.12l-20.74,34.09c1.91.45,3.77,1,5.7,1.38l.46-3.45,8.27,1,3.59-6.52c3.12-5.67,6.28-11.8,9.28-17.77l.47.05c1.28,6.48,2.9,13.15,4.42,19.35l1.74,7.13,8.41,1-.3,2.28c1.89-.05,3.75-.17,5.62-.28L647.26,496Z" transform="translate(-453.95 -205.68)"/></svg>