<svg id="Layer_1" data-name="Layer 1" xmlns="http://www.w3.org/2000/svg" viewBox="0 0 141.98 143.48"><defs><style>.cls-1{fill:none;stroke:#006837;stroke-miterlimit:10;stroke-width:3px;}.cls-2{fill:#006837;}</style></defs><ellipse class="cls-1" cx="73.93" cy="69.19" rx="63.8" ry="67.69"/><path class="cls-2" d="M612.22,389.9l-.08-3.62,7.65-.21-.16-6.91-7.65.2-.09-3.62,19.07-.51.08,3.62-8.44.23.16,6.92,8.45-.23.09,3.62Z" transform="translate(-611.89 -311.87)"/><path class="cls-2" d="M621.87,399.67,632.3,389l1,4.35L629,397.49c-1.26,1.15-2.47,2.26-3.77,3.47l0,.14c1.66.43,3.24.89,4.86,1.31l5.63,1.52,1,4.23-13.89-4.4-6.48,1.68-.93-4.09Z" transform="translate(-611.89 -311.87)"/><path class="cls-2" d="M626.7,415.62,638.1,408l2.24,3.76-11.64,7.83c-3,2-3.44,4.28-2.1,6.51s3.49,2.83,6.47.82L644.71,419l2.15,3.61-11.39,7.67c-5,3.38-9,2.26-11.73-2.34S621.67,419,626.7,415.62Z" transform="translate(-611.89 -311.87)"/><path class="cls-2" d="M649.27,422.58l3.13,2.91-2.65,12.72-1.17,4.69.07.06c1.16-1.68,2.48-3.88,3.89-5.59l5.49-6.66,2.84,2.63-12.62,15.33-3.13-2.91L647.77,433l1.17-4.68-.07-.06c-1.22,1.74-2.46,3.85-3.85,5.55l-5.53,6.7-2.84-2.64Z" transform="translate(-611.89 -311.87)"/><path class="cls-2" d="M669.29,432l4.42,1.61.61,21.74-4-1.46.13-11.38c0-2.26.06-4.7.17-7l-.12-.05c-1.29,1.92-2.62,3.87-3.91,5.67l-6.52,9.06-3.84-1.4Zm-6.44,10.34,9.88,3.6-.87,2.7L662,445Z" transform="translate(-611.89 -311.87)"/><path class="cls-2" d="M747,435.4l4.76-5.48,2.11,2.07-12.21,14L739.55,444l4.76-5.48-12-11.73,2.68-3.08Z" transform="translate(-611.89 -311.87)"/></svg>