<?xml version="1.0" encoding="utf-8"?>
<!-- Generator: Adobe Illustrator 25.4.1, SVG Export Plug-In . SVG Version: 6.00 Build 0)  -->
<svg version="1.1" id="Layer_1" xmlns="http://www.w3.org/2000/svg" xmlns:xlink="http://www.w3.org/1999/xlink" x="0px" y="0px"
	 viewBox="0 0 800 800" style="enable-background:new 0 0 800 800;" xml:space="preserve">
<style type="text/css">
	.st0{opacity:0.1;fill:#006837;enable-background:new    ;}
	.st1{fill:#006837;}
	.st2{fill:none;}
	.st3{fill:#FFFFFF;}
</style>
<circle class="st0" cx="232.9" cy="393.7" r="78.7"/>
<circle class="st0" cx="232.9" cy="393.7" r="78.7"/>
<circle class="st0" cx="232.9" cy="393.7" r="78.7"/>
<circle class="st0" cx="232.9" cy="393.7" r="78.7"/>
<circle class="st0" cx="232.9" cy="393.7" r="78.7"/>
<circle class="st0" cx="232.9" cy="393.7" r="78.7"/>
<circle class="st0" cx="232.9" cy="393.7" r="78.7"/>
<circle class="st0" cx="232.9" cy="393.7" r="78.7"/>
<circle class="st0" cx="232.9" cy="393.7" r="78.7"/>
<circle class="st0" cx="232.9" cy="393.7" r="78.7"/>
<path class="st1" d="M142.2,403.9l-0.1-4.2l9.4-0.2l-0.2-8l-9.4,0.2l-0.1-4.2l23.5-0.6l0.1,4.2l-10.4,0.3l0.2,8l10.4-0.3l0.1,4.2
	L142.2,403.9z"/>
<path class="st1" d="M154.1,415.3l12.9-12.4l1.2,5.1l-5.3,4.8c-1.6,1.3-3,2.6-4.6,4v0.2c2,0.5,4,1,6,1.5l6.9,1.8l1.2,4.9l-17.1-5.1
	l-8,1.9l-1.1-4.7L154.1,415.3z"/>
<path class="st1" d="M160.1,433.8l14.1-8.9l2.8,4.4l-14.4,9.1c-3.7,2.3-4.2,5-2.6,7.6c1.7,2.6,4.3,3.3,8,1l14.4-9.1l2.6,4.2
	l-14.1,8.9c-6.2,3.9-11.1,2.6-14.4-2.7C153.1,442.8,153.9,437.8,160.1,433.8z"/>
<path class="st1" d="M187.9,441.9l3.9,3.4l-3.3,14.8l-1.4,5.5l0.1,0.1c1.4-2,3.1-4.5,4.8-6.5l6.8-7.8l3.5,3.1l-15.6,17.9l-3.9-3.4
	l3.3-14.8l1.4-5.4l-0.1-0.1c-1.5,2-3,4.4-4.8,6.4l-6.8,7.8l-3.5-3.1L187.9,441.9z"/>
<path class="st1" d="M212.6,452.9l5.5,1.9l0.8,25.3l-4.9-1.7l0.2-13.2c0-2.6,0.1-5.5,0.2-8.2l-0.2-0.1c-1.6,2.2-3.2,4.5-4.8,6.6
	l-8,10.5l-4.7-1.6L212.6,452.9z"/>
<path class="st1" d="M308.4,456.8l5.9-6.4l2.6,2.4l-15.1,16.3l-2.6-2.4l5.9-6.4l-14.8-13.6l3.3-3.6L308.4,456.8z"/>
<path class="st2" d="M187,465.5L187,465.5c1.3-1.6,2.6-3.6,4.1-5.3c-0.8-0.5-1.6-0.9-2.3-1.4l-0.3,1.3L187,465.5z"/>
<path class="st2" d="M159.9,445.9c1.7,2.6,4.3,3.3,8,1l4.6-2.9c-2.1-2.6-4.1-5.3-5.9-8.2l-4.1,2.6
	C158.9,440.7,158.3,443.4,159.9,445.9z"/>
<path class="st2" d="M214,465.1c0-2.6,0.1-5.5,0.2-8.2l-0.2-0.1c-1.6,2.2-3.2,4.5-4.8,6.6l-1.8,2.4l6.5,2.2L214,465.1z"/>
<path class="st3" d="M165.6,399.1l-10.4,0.3l-0.2-8l10.4-0.3l-0.1-4.2l-10.7,0.3c-0.2,2.1-0.3,4.3-0.3,6.5c0,3.3,0.3,6.7,0.7,10
	l10.8-0.3L165.6,399.1z"/>
<path class="st3" d="M171.2,420.2l-6.9-1.8c-2-0.5-3.9-1-6-1.5v-0.2c1.6-1.4,3.1-2.7,4.6-4l5.3-4.8l-1.2-5.1l-10.2,9.9
	c0.7,2.9,1.6,5.7,2.6,8.5l13,3.9L171.2,420.2z"/>
<path class="st3" d="M182.3,437.8l-9.8,6.2c1.1,1.3,2.2,2.5,3.4,3.7l9-5.7L182.3,437.8z"/>
<path class="st3" d="M176.9,429.3l-2.8-4.4l-10.2,6.5c0.8,1.5,1.8,3,2.7,4.4L176.9,429.3z"/>
<path class="st3" d="M198.7,451.4l-6.8,7.8c-0.3,0.3-0.6,0.7-0.8,1.1c1.3,0.8,2.6,1.7,4,2.4l7.1-8.2L198.7,451.4z"/>
<path class="st3" d="M191.7,445.3l-3.9-3.4l-8.3,9.5c1.1,1,2.2,2.1,3.4,3.1c1.6-1.9,3-4.1,4.4-5.9l0.1,0.1l-1.4,5.4l-0.5,2.3
	c1.1,0.8,2.1,1.7,3.2,2.4L191.7,445.3z"/>
<path class="st3" d="M216.3,470.5l0.5-1.5l-2.8-1v1.8C214.7,470.1,215.5,470.4,216.3,470.5z"/>
<path class="st3" d="M207.4,465.8l-2.8-1l-0.6,1.9c0.7,0.3,1.4,0.5,2.1,0.8L207.4,465.8z"/>
<path class="st3" d="M212.6,452.9l-10.8,13c0.7,0.3,1.5,0.6,2.2,0.9l0.6-1.9l2.8,1l1.8-2.4c1.6-2.1,3.2-4.4,4.8-6.6l0.2,0.1
	c-0.1,2.7-0.2,5.5-0.2,8.2v3l2.8,1l-0.5,1.5c0.7,0.2,1.5,0.3,2.2,0.4l-0.5-16.2L212.6,452.9z"/>
<image style="overflow:visible;" width="785" height="294" xlink:href="portfolio_logoV2_black.png"  transform="matrix(0.4235 0 0 0.4235 326.578 332.1697)">
</image>
</svg>
