<?xml version="1.0" encoding="utf-8"?>
<!-- Generator: Adobe Illustrator 25.4.1, SVG Export Plug-In . SVG Version: 6.00 Build 0)  -->
<svg version="1.1" id="Layer_1" xmlns="http://www.w3.org/2000/svg" xmlns:xlink="http://www.w3.org/1999/xlink" x="0px" y="0px"
	 viewBox="0 0 1200 630" style="enable-background:new 0 0 1200 630;" xml:space="preserve">
<style type="text/css">
	.st0{opacity:0.1;fill:#006837;enable-background:new    ;}
	.st1{fill:#006837;}
	.st2{fill:none;}
	.st3{fill:#FFFFFF;}
</style>
<circle class="st0" cx="211.5" cy="306.2" r="182.5"/>
<circle class="st0" cx="211.5" cy="306.2" r="182.5"/>
<circle class="st0" cx="211.5" cy="306.2" r="182.5"/>
<circle class="st0" cx="211.5" cy="306.2" r="182.5"/>
<circle class="st0" cx="211.5" cy="306.2" r="182.5"/>
<circle class="st0" cx="211.5" cy="306.2" r="182.5"/>
<circle class="st0" cx="211.5" cy="306.2" r="182.5"/>
<circle class="st0" cx="211.5" cy="306.2" r="182.5"/>
<circle class="st0" cx="211.5" cy="306.2" r="182.5"/>
<circle class="st0" cx="211.5" cy="306.2" r="182.5"/>
<path class="st1" d="M1,330l-0.2-9.7l21.9-0.6l-0.5-18.6l-21.9,0.5L0,291.9l54.6-1.4l0.3,9.7l-24.2,0.6l0.5,18.6l24.2-0.6l0.3,9.7
	L1,330z"/>
<path class="st1" d="M28.6,356.4l29.8-28.8l2.8,11.7L49,350.5c-3.6,3.1-7.1,6.1-10.8,9.4v0.4c4.8,1.2,9.3,2.4,13.9,3.5l16.1,4.1
	l2.8,11.4l-39.7-11.9l-18.5,4.5l-2.6-11L28.6,356.4z"/>
<path class="st1" d="M42.4,399.4L75,378.9l6.4,10.1L48,410.1c-8.5,5.4-9.8,11.5-6,17.6s10,7.7,18.5,2.2l33.4-21.1l6.1,9.7L67.4,439
	c-14.4,9.1-25.7,6.1-33.4-6.3C26.3,420.3,28,408.5,42.4,399.4z"/>
<path class="st1" d="M107,418.2l8.9,7.8l-7.6,34.2l-3.3,12.6l0.2,0.2c3.3-4.6,7.1-10.5,11.2-15.1l15.7-18l8.1,7.1L104,488.5
	l-8.9-7.8l7.7-34.3l3.3-12.6l-0.2-0.2c-3.5,4.7-7,10.3-11.1,15l-15.8,18l-8.1-7.1L107,418.2z"/>
<path class="st1" d="M164.2,443.6l12.6,4.3l1.7,58.6l-11.3-3.9l0.4-30.7c0-6.1,0.2-12.6,0.5-18.9l-0.4-0.2
	c-3.7,5.1-7.5,10.4-11.2,15.3l-18.7,24.4l-11-3.8L164.2,443.6z"/>
<path class="st1" d="M386.5,452.7l13.6-14.8l6,5.6l-34.9,37.9l-6-5.6l13.6-14.8l-34.3-31.6l7.7-8.3L386.5,452.7z"/>
<path class="st2" d="M105,472.9l0.2,0.2c2.8-3.8,5.9-8.4,9.2-12.6c-1.8-1.1-3.7-2.2-5.4-3.3l-0.7,3.1L105,472.9z"/>
<path class="st2" d="M42.1,427.5c3.8,6.1,10,7.7,18.5,2.2l10.7-6.8c-5-6-9.6-12.4-13.7-19l-9.5,6C39.6,415.4,38.3,421.5,42.1,427.5z
	"/>
<path class="st2" d="M167.6,471.9c0-6.1,0.2-12.6,0.5-18.9l-0.4-0.2c-3.7,5.1-7.5,10.4-11.2,15.3l-4.2,5.6l15.2,5.1L167.6,471.9z"/>
<path class="st3" d="M55.3,318.8l-24.2,0.6l-0.5-18.6l24.2-0.6l-0.3-9.7l-24.8,0.6c-0.4,5-0.8,10-0.8,15.1
	c0.1,7.7,0.6,15.5,1.6,23.1l25-0.6L55.3,318.8z"/>
<path class="st3" d="M68.2,367.9l-16.1-4.1c-4.7-1.1-9.2-2.4-13.9-3.5v-0.4c3.7-3.3,7.1-6.2,10.8-9.4l12.4-11.2l-2.8-11.7l-23.8,23
	c1.6,6.7,3.7,13.3,6,19.7l30.2,9L68.2,367.9z"/>
<path class="st3" d="M93.9,408.6L71.3,423c2.6,3,5.1,5.8,7.8,8.6l21-13.3L93.9,408.6z"/>
<path class="st3" d="M81.4,388.9L75,378.7l-23.7,15c1.9,3.5,4.1,6.9,6.2,10.3L81.4,388.9z"/>
<path class="st3" d="M132,440.1l-15.7,18c-0.7,0.8-1.3,1.7-1.9,2.6c3,1.9,6,3.8,9.2,5.6l16.6-18.9L132,440.1z"/>
<path class="st3" d="M115.8,426l-8.9-7.8l-19.2,22c2.6,2.4,5.1,4.9,7.9,7.2c3.6-4.4,6.9-9.4,10.1-13.7l0.2,0.2l-3.3,12.6l-1.2,5.3
	c2.6,1.9,4.9,3.9,7.5,5.6L115.8,426z"/>
<path class="st3" d="M172.9,484.5l1.2-3.4l-6.6-2.3v4.3C169.2,483.6,171,484.2,172.9,484.5z"/>
<path class="st3" d="M152.3,473.7l-6.5-2.2l-1.5,4.4c1.6,0.6,3.3,1.2,4.9,1.8L152.3,473.7z"/>
<path class="st3" d="M164.2,443.6l-25,30.2c1.7,0.7,3.4,1.3,5.1,2l1.5-4.4l6.5,2.2l4.2-5.6c3.7-4.9,7.5-10.1,11.2-15.3l0.4,0.2
	c-0.3,6.3-0.4,12.9-0.5,18.9v7l6.6,2.3l-1.2,3.4c1.7,0.4,3.4,0.7,5.1,1l-1.1-37.6L164.2,443.6z"/>
<image style="overflow:visible;" width="785" height="294" xlink:href="portfolio_logoV2_black.png"  transform="matrix(0.9825 0 0 0.9825 428.7216 163.5302)">
</image>
</svg>
